<svg width="625" height="784" viewBox="0 0 625 784" fill="none" xmlns="http://www.w3.org/2000/svg">
<path d="M515.459 265.12L682.936 218.699L705.994 301.887L538.517 348.309L515.459 265.12Z" fill="white" stroke="#FF6B00" stroke-width="1.22338" stroke-miterlimit="10"/>
<path d="M430.644 607.776L411.554 613.067C406.565 610.889 401.392 609.036 396.332 606.603C395.682 606.235 395.103 606.122 394.453 605.754L388.388 583.876L421.477 574.704L430.644 607.776Z" fill="white" stroke="#FF6B00" stroke-width="1.22338" stroke-miterlimit="10"/>
<path d="M472.898 631.677L505.986 622.505L496.819 589.433L463.731 598.605L454.564 565.533L487.652 556.362L478.485 523.29L445.397 532.461L412.309 541.633L403.142 508.561L436.23 499.389L427.063 466.317L393.975 475.489L403.142 508.561L370.054 517.732L336.966 526.904L327.799 493.832L294.711 503.003L261.623 512.175L270.79 545.247L279.957 578.318L246.869 587.49L237.702 554.418L222.939 558.51L207.497 335.69C207.497 335.69 229.418 303.041 288.316 300.96C376.537 297.875 419.836 345.319 492.845 361.517C538.729 371.81 548.908 351.182 548.908 351.182L578.679 542.636C578.679 542.636 655.471 526.008 699.319 577.409C725.34 608.001 686.228 639.936 645.759 651.153C603.508 662.864 553.536 655.622 473.533 633.966L472.898 631.677V631.677Z" fill="white" stroke="#FF6B00" stroke-width="1.22338" stroke-miterlimit="10"/>
<path d="M472.899 631.677L468.827 632.805C457.533 629.635 446.099 625.956 434.523 621.768L430.644 607.776L463.732 598.605L472.899 631.677Z" fill="white" stroke="#FF6B00" stroke-width="1.22338" stroke-miterlimit="10"/>
<path d="M388.389 583.876L356.064 592.835C355.81 592.906 355.485 592.722 355.23 592.793L346.134 559.975L379.222 550.804L388.389 583.876Z" fill="white" stroke="#FF6B00" stroke-width="1.22338" stroke-miterlimit="10"/>
<path d="M318.405 588.481C305.526 588.49 294.229 590.251 283.977 592.819L279.958 578.318L313.046 569.147L318.405 588.481Z" fill="white" stroke="#FF6B00" stroke-width="1.22338" stroke-miterlimit="10"/>
<path d="M230.585 627.616L228.039 628.322L225.49 593.416L246.87 587.49L252.229 606.824C241.324 613.956 233.967 622.022 230.585 627.616Z" fill="white" stroke="#FF6B00" stroke-width="1.22338" stroke-miterlimit="10"/>
<path d="M303.879 536.075L336.967 526.903L346.134 559.975L313.046 569.147L303.879 536.075Z" fill="white" stroke="#FF6B00" stroke-width="1.22338" stroke-miterlimit="10"/>
<path d="M520.213 364.34L550.678 595.872C550.678 595.872 606.138 556.666 680.31 568.158L638.995 345.935C638.995 345.935 603.769 318.717 549.232 351.366C549.232 351.366 537.984 365.168 520.213 364.34Z" fill="#262626"/>
<path d="M549.233 351.365L542.201 296.334C542.201 296.334 624.351 281.234 664.651 331.701L706.663 589.07C706.663 589.07 702.334 572.463 652.679 557.463C622.784 548.491 581.763 560.683 581.763 560.683L549.233 351.365Z" fill="white" stroke="#FF6B00" stroke-width="1.22338" stroke-miterlimit="10"/>
<path d="M346.94 305.804C346.94 305.804 314.93 289.2 274.402 303.173C233.874 317.146 136.066 407.264 136.066 407.264L132.993 582.071C132.993 582.071 252.368 480.77 291.691 472.336C329.161 464.141 361.101 480.491 361.101 480.491L346.94 305.804Z" fill="#262626"/>
<path d="M315.725 262.407C315.725 262.407 285.505 253.251 243.187 259.776C205.082 265.681 104.851 363.867 104.851 363.867L101.778 538.674C101.778 538.674 222.352 441.697 260.476 428.939C298.599 416.18 329.184 429.618 329.184 429.618L315.725 262.407Z" fill="white" stroke="#FF6B00" stroke-width="1.22338" stroke-miterlimit="10"/>
<path d="M215.258 272.722L215.827 350.913L139.655 412.296L140.092 330.814L195.711 285.263L215.258 272.722Z" fill="#262626"/>
<path d="M302.867 607.581L388.387 583.876L403.406 638.063L317.886 661.768L302.867 607.581Z" fill="white" stroke="#FF6B00" stroke-width="1.22338" stroke-miterlimit="10"/>
<path d="M381.5 615.671L381.123 614.314L368.657 611.778L369.259 613.949L378.758 615.664L378.652 615.547L378.746 615.886L378.776 615.731L371.516 622.092L372.117 624.263L381.5 615.671ZM356.844 609.499L368.206 628.745L370.038 628.237L358.676 608.991L356.844 609.499ZM348.502 631.393L349.451 629.742L342.583 625.855L356.51 621.995L355.993 620.129L342.066 623.989L345.957 617.138L344.289 616.194L338.796 625.9L348.502 631.393ZM323.529 631.739L335.996 634.275L335.394 632.104L325.895 630.389L326 630.506L325.906 630.167L325.876 630.321L333.137 623.961L332.535 621.79L323.153 630.382L323.529 631.739Z" fill="black"/>
<path d="M195.595 268.036L195.909 346.298L119.737 407.681L120.198 332.218L195.595 268.036Z" fill="white" stroke="#262626" stroke-width="1.22338" stroke-miterlimit="10"/>
<path d="M304.951 203.756L298.031 130.339L374.273 69.2097L380.347 139.574L304.951 203.756Z" fill="white" stroke="#262626" stroke-width="1.22338" stroke-miterlimit="10"/>
<path d="M339.201 149.335C334.421 150.66 329.474 147.861 328.149 143.084C326.825 138.307 329.626 133.361 334.406 132.036C339.185 130.711 344.133 133.51 345.457 138.287C346.781 143.064 343.98 148.011 339.201 149.335Z" fill="white" stroke="#262626" stroke-width="1.22338" stroke-miterlimit="10"/>
<path d="M159.552 360.484L159.547 388.154L132.671 409.849L132.958 383.197L159.552 360.484Z" fill="white" stroke="#262626" stroke-width="1.22338" stroke-miterlimit="10"/>
<path d="M257.03 401.677L257.255 445.994L215.573 472.614L215.772 429.824L257.03 401.677Z" fill="white" stroke="#262626" stroke-width="1.22338" stroke-miterlimit="10"/>
<path d="M396.972 431.922C378.558 437.026 359.494 426.243 354.392 407.838C349.29 389.432 360.083 370.374 378.497 365.269C396.912 360.165 415.976 370.948 421.077 389.354C426.179 407.759 415.387 426.818 396.972 431.922Z" fill="#262626"/>
<path d="M388.204 417.094C369.789 422.198 350.725 411.415 345.624 393.01C340.522 374.604 351.314 355.545 369.729 350.441C388.143 345.337 407.207 356.12 412.309 374.526C417.411 392.931 406.618 411.99 388.204 417.094Z" fill="white" stroke="#262626" stroke-width="1.22338" stroke-miterlimit="10"/>
<path d="M378.964 383.768L511.818 149.155" stroke="#FF6B00" stroke-width="1.22338" stroke-miterlimit="10"/>
<path d="M525.716 171.601C507.302 176.705 488.238 165.922 483.136 147.517C478.035 129.111 488.827 110.053 507.241 104.948C525.656 99.8441 544.72 110.627 549.821 129.033C554.923 147.438 544.131 166.497 525.716 171.601Z" fill="white" stroke="#FF6B00" stroke-width="1.22338" stroke-miterlimit="10"/>
<path d="M503.748 106.191L509.369 92.8535L541.802 133.722L517.227 180.529L511.196 172.613" stroke="#FF6B00" stroke-width="1.22338" stroke-miterlimit="10"/>
<path d="M674.635 253.809L674.154 252.074L658.217 248.833L658.986 251.608L671.13 253.8L670.995 253.651L671.115 254.084L671.154 253.887L661.872 262.017L662.641 264.793L674.635 253.809ZM645.916 270.176L646.577 272.562L660.456 268.715L659.795 266.329L645.916 270.176ZM632.11 274.003L632.772 276.388L646.65 272.541L645.989 270.156L632.11 274.003ZM618.305 277.83L618.966 280.215L632.845 276.368L632.184 273.983L618.305 277.83ZM601.699 257.4L616.224 282.002L618.567 281.353L604.041 256.75L601.699 257.4ZM593.616 284.673L594.277 287.058L608.156 283.211L607.495 280.826L593.616 284.673ZM574.437 281.582L590.374 284.824L589.605 282.049L577.462 279.857L577.596 280.006L577.476 279.573L577.438 279.77L586.72 271.64L585.95 268.864L573.956 279.848L574.437 281.582Z" fill="black"/>
</svg>
